<svg xmlns="http://www.w3.org/2000/svg" xmlns:xlink="http://www.w3.org/1999/xlink" version="1.1" id="Layer_1" x="0px" y="0px" viewBox="0 0 100 52" enable-background="new 0 0 100 52" xml:space="preserve">
<path fill-rule="evenodd" clip-rule="evenodd" fill="#cc0000" d="M10.4 13.6C2.7 20 0 25.8 0 30.7c0 5.4 3.7 9.6 10.2 13 c3.9 2 8.8 4 14.4 5.1c12 2.4 22.8 3.7 34 3.1c28.7-1.5 43.8-9 41-20.3c-2.3-9.4-11-15.8-20.5-21.3C68.6 4.2 53.1 1 46.6 0.4 c-10.4-1-20.3 0.1-27.8 1.4C11.2 3.1 7.1 4.7 7.4 6.2c0.1 0.6 1.5 0.8 4.2 1c4 0.3 2.9-1 22.1-3.4c10.1-1 19.6 0.5 27.8 2.3 c7.9 1.8 13.7 4.1 19.6 7.3c9.5 5.2 15 11.6 17.1 18.6c2 6.9-9.5 12.5-25.2 14.7c-15.4 2.1-29.8 1.9-41.5 0.3c-14.3-2-22-5.3-26-8.5 c-3.1-2.5-4-4.9-3.9-7.6c0.1-5.9 3.2-10.2 6.8-12.9c5.3-4 11.5-5.9 12.5-6.4c0.5-0.2 1-1.3 1.3-2.2c0.4-1.6 1.6-1.6 1-2.5 c-0.4-0.6-2.1 0-5.4 1.9C15.8 9.9 13.2 11.3 10.4 13.6z"/>
<path fill="#cc0000" d="M16.8 36.6v-6.3h0.6c0.7 0 1.2 0.1 1.8 0.4c0.4 0.2 0.8 0.6 1.3 1.2l3.8 4.7h8.1l-3.5-4.5 c-0.2-0.2-0.5-0.5-1-1c-0.5-0.4-0.9-0.7-1.1-0.8c-0.4-0.2-1-0.4-1.9-0.6c1.1-0.2 1.9-0.4 2.5-0.6c1-0.4 1.7-0.9 2.3-1.5 c0.5-0.6 0.8-1.4 0.8-2.2c0-1-0.4-1.8-1.1-2.5c-0.7-0.7-1.7-1.2-2.8-1.4c-1.2-0.3-2.9-0.4-5.1-0.4H9.6v15.4H16.8z M16.8 24.3h3.1 c1.3 0 2.2 0.1 2.7 0.4c0.5 0.3 0.7 0.6 0.7 1.1c0 0.3-0.1 0.6-0.4 0.9c-0.3 0.3-0.7 0.4-1.2 0.5c-0.9 0.1-1.6 0.2-1.9 0.2h-3V24.3z "/>
<path fill="#cc0000" d="M40.5 36.6h7.7l8.6-15.4h-7.3l-5.1 11.1l-5.2-11.1h-7.5L40.5 36.6z"/>
<path fill-rule="evenodd" clip-rule="evenodd" d="M59.8 21.2h18l-2.3 4.1l-5.8 0l-6.2 11.2l-5.8 0L64 25.4l-6.5 0L59.8 21.2z"/>
<path fill-rule="evenodd" clip-rule="evenodd" d="M70.9 35c0.4 0 0.7 0.3 0.7 0.7c0 0.4-0.3 0.7-0.7 0.7c-0.4 0-0.7-0.3-0.7-0.7 C70.2 35.4 70.5 35 70.9 35z"/>
<path d="M76.9 31.2c-0.4-0.3-0.9-0.4-1.6-0.4c-0.8 0-1.5 0.3-2 0.8c-0.5 0.5-0.7 1.2-0.7 2.2c0 0.9 0.2 1.6 0.7 2.1 c0.5 0.5 1.1 0.8 2 0.8c0.7 0 1.3-0.2 1.7-0.5c0.4-0.3 0.7-0.8 0.9-1.5l-1.5-0.2c-0.1 0.4-0.2 0.7-0.4 0.8c-0.2 0.2-0.4 0.2-0.7 0.2 c-0.4 0-0.7-0.1-0.9-0.4c-0.2-0.3-0.3-0.7-0.3-1.4c0-0.6 0.1-1 0.3-1.3c0.2-0.3 0.5-0.4 0.9-0.4c0.3 0 0.5 0.1 0.7 0.2 c0.2 0.1 0.3 0.4 0.3 0.7l1.5-0.3C77.6 32 77.3 31.5 76.9 31.2z"/>
<path d="M78.6 35.3c0.2 0.4 0.6 0.8 1.1 1c0.5 0.2 1 0.3 1.5 0.3c0.8 0 1.5-0.3 2.1-0.8c0.5-0.6 0.8-1.3 0.8-2.1 c0-0.8-0.3-1.5-0.8-2.1c-0.5-0.5-1.2-0.8-2.1-0.8c-0.5 0-1 0.1-1.5 0.4c-0.4 0.2-0.8 0.6-1 1.1c-0.2 0.5-0.4 0.9-0.4 1.4 C78.3 34.3 78.4 34.8 78.6 35.3z M80.2 32.4c0.3-0.3 0.6-0.4 1-0.4s0.7 0.1 1 0.4c0.3 0.3 0.4 0.7 0.4 1.3c0 0.6-0.1 1-0.4 1.3 s-0.6 0.4-1 0.4s-0.7-0.1-1-0.4c-0.3-0.3-0.4-0.7-0.4-1.3C79.8 33.1 79.9 32.7 80.2 32.4z"/>
<path d="M84.8 36.5h1.5v-2.7c0-0.5 0-0.9 0.1-1.2c0.1-0.2 0.2-0.4 0.4-0.5c0.2-0.1 0.4-0.2 0.6-0.2c0.2 0 0.3 0 0.4 0.1 c0.1 0.1 0.2 0.2 0.2 0.4c0.1 0.2 0.1 0.5 0.1 1.1v3.1h1.5v-2.7c0-0.5 0-0.9 0.1-1.2c0.1-0.2 0.2-0.4 0.4-0.6 c0.2-0.1 0.4-0.2 0.6-0.2c0.3 0 0.5 0.1 0.6 0.3c0.1 0.2 0.2 0.5 0.2 1.1v3.2H93v-3.6c0-0.5-0.1-0.9-0.2-1.2 c-0.1-0.3-0.4-0.6-0.6-0.7s-0.6-0.2-1-0.2c-0.3 0-0.6 0.1-0.9 0.2c-0.3 0.1-0.5 0.4-0.8 0.7c-0.2-0.3-0.4-0.5-0.6-0.7 c-0.3-0.1-0.6-0.2-0.9-0.2c-0.7 0-1.3 0.3-1.7 0.9v-0.8h-1.4V36.5z"/>
<path fill-rule="evenodd" clip-rule="evenodd" d="M97.5 13.4c1.4 0 2.4 1 2.4 2.4s-1.1 2.4-2.4 2.4c-1.4 0-2.5-1.1-2.5-2.4 S96.1 13.4 97.5 13.4L97.5 13.4z M97.4 13.8c-1 0-1.8 0.9-1.8 1.9c0 1.1 0.8 1.9 1.9 1.9c1 0 1.8-0.8 1.8-1.9 C99.3 14.7 98.5 13.8 97.4 13.8L97.4 13.8z M97.1 17h-0.6v-2.4c0.2 0 0.5-0.1 0.9-0.1c0.5 0 0.7 0.1 0.8 0.2 c0.1 0.1 0.2 0.3 0.2 0.5c0 0.3-0.2 0.5-0.5 0.6v0c0.2 0.1 0.3 0.3 0.4 0.6c0.1 0.4 0.1 0.5 0.2 0.6H98c-0.1-0.1-0.1-0.3-0.2-0.6 c0-0.2-0.2-0.4-0.5-0.4h-0.3V17z M97.1 15.6h0.3c0.3 0 0.6-0.1 0.6-0.3c0-0.2-0.2-0.4-0.5-0.4c-0.1 0-0.2 0-0.3 0V15.6z"/>
</svg>
